<svg xmlns="http://www.w3.org/2000/svg" xmlns:xlink="http://www.w3.org/1999/xlink" width="328" height="350" viewBox="0 0 328 350">
    <defs>
        <path id="iy3p0a20ya" d="M.11 227.872C2.39 189.035 23.483 53.379 90.638 14.537c70.314-40.67 187.287 17.174 211.068 55.69 46.493 75.302 34.725 233.69-62.707 269.88C141.568 376.294-4.559 307.372.11 227.871z"/>
        <path id="flvrr34xbc" d="M0.479 0.289L35.595 0.289 35.595 163.951 0.479 163.951z"/>
        <path id="j097sque4e" d="M0.407 0.132L52.947 0.132 52.947 27.651 0.407 27.651z"/>
    </defs>
    <g fill="none" fill-rule="evenodd">
        <g>
            <g transform="translate(-175 -663) translate(175 663)">
                <mask id="r8nj20226b" fill="#fff">
                    <use xlink:href="#iy3p0a20ya"/>
                </mask>
                <path fill="#F2F6FB" d="M.11 227.872C4.776 148.37 255.213-5.075 301.706 70.227c46.493 75.302 34.725 233.69-62.707 269.88C141.568 376.294-4.559 307.372.11 227.871z" style="mix-blend-mode:multiply" mask="url(#r8nj20226b)" transform="matrix(-1 0 0 1 328 0)"/>
                <g mask="url(#r8nj20226b)">
                    <g>
                        <g>
                            <path fill="#697589" d="M11.166 270.737L66.172 270.302 34.74 469.484 11.442 469.484z" transform="translate(32 37) translate(.874)"/>
                            <path fill="#697589" d="M51.981 270.302L101.636 270.737 87.872 466.882 62.316 466.882z" transform="translate(32 37) translate(.874)"/>
                            <path fill="#483037" d="M22.208 302.577c.505-.184 12.355-4.578 15.129-12.525 2.69-7.71 1.307-16.099 1.246-16.452l-2.328.396c.014.082 1.336 8.155-1.147 15.276-2.404 6.89-13.594 11.044-13.706 11.084l.806 2.22zM98.074 302.32l1.06-1.707c-.068-.041-6.586-4.172-8.016-11.153-1.491-7.277-.697-15.48-.688-15.561l-2-.2c-.034.347-.833 8.59.719 16.163 1.608 7.846 8.627 12.272 8.925 12.458" transform="translate(32 37) translate(.874)"/>
                            <path fill="#FF8400" d="M108.473 116.214L76.368 98.127 40.154 98.127 4.473 115.419 11.166 270.738 101.636 270.738z" transform="translate(32 37) translate(.874)"/>
                            <path fill="#AE681D" d="M96.571 152.844L85.337 177.831 90.955 181.782zM22.471 150.042L54.341 184.486 29.301 192.415zM45.793 200.516L103.958 218.28 104.644 205.034z" transform="translate(32 37) translate(.874)"/>
                            <path fill="#FFAFAE" d="M13.046 193.753l6.695-14.52c1.762-3.817 6.282-5.483 10.1-3.722l11.243 5.183-4.693 10.174c-2.868 6.215-10.23 8.933-16.448 6.066l-6.897-3.181zM102.227 195.922l-3.79-15.534c-.996-4.084-5.115-6.586-9.198-5.59l-12.026 2.934 2.655 10.884c1.622 6.652 8.328 10.728 14.98 9.106l7.38-1.8z" transform="translate(32 37) translate(.874)"/>
                            <path fill="#FF8400" d="M102.727 191.318L41.083 180.695 32.273 199.404 102.97 210.531z" transform="translate(32 37) translate(.874)"/>
                            <path fill="#AE681D" d="M82.316 191.281L19.367 219.461 8.416 206.908 6.915 177.739z" transform="translate(32 37) translate(.874)"/>
                            <path fill="#FF8400" d="M42.168 205.033L4.5 115.055s-9.25 13.013-1.228 50.911c8.147 38.498 16.421 46.407 16.421 46.407l22.475-7.34zM108.5 115.852s16.872 50.943-5.53 94.68l-4.767-2.29-11.49-4.006L91.269 177l17.231-61.15z" transform="translate(32 37) translate(.874)"/>
                            <path fill="#FF8400" d="M19.694 212.373c47.78-11.596 62.622-21.092 62.622-21.092l-3.671-14.09-64.062 14.166 5.11 21.016z" transform="translate(32 37) translate(.874)"/>
                            <path fill="#FFAFAE" d="M75.476 52.235l1.291 53.272s-3.005 2.99-17.088 2.99c-14.085-.004-21.907-8.687-21.907-8.687l6.148-42.288 31.556-5.287z" transform="translate(32 37) translate(.874)"/>
                            <path fill="#565656" d="M79.706 10.719c-7.27 0-13.163 5.894-13.163 13.162v16.575c0 7.27 5.893 13.162 13.163 13.162 7.27 0 13.163-5.893 13.163-13.162V23.88c0-7.268-5.893-13.162-13.163-13.162" transform="translate(32 37) translate(.874)"/>
                            <path fill="#FFAFAE" d="M77.125 21.867H41.414v60.147S54.863 94.78 74.181 92.54c9.55-1.106 16.773-10.28 16.773-21.1V36.774c0-4.643-4.394-14.907-13.83-14.907" transform="translate(32 37) translate(.874)"/>
                            <path fill="#FFAFAE" d="M47.905 86.402H57.7c4.222 0 7.645-3.424 7.645-7.646V68.602H47.905v17.8z" transform="translate(32 37) translate(.874)"/>
                            <path fill="#ADADAD" d="M37.348 59.471L48.299 59.471 48.299 26.65 37.348 26.65z" transform="translate(32 37) translate(.874)"/>
                            <path fill="#A0A0A0" d="M37.356 55.858L48.299 55.858 48.299 37.918 37.356 37.918z" transform="translate(32 37) translate(.874)"/>
                            <path fill="#CA6F6D" d="M79.655 59.415L79.877 65.933 77.189 65.933 77.189 68.285 82.222 68.285 81.96 59.375z" transform="translate(32 37) translate(.874)"/>
                            <path fill="#565656" d="M48.027 11.729c-6.213 2.214-10.673 8.242-10.673 15.346v11.408h8.106c4.196 0 7.595-3.474 7.595-7.766 0-1.658.57-3.166 1.507-4.365.153-.2.322-.385.508-.57 1.23-1.26 2.952-2.044 4.828-2.044h14.591V10.821H53.27c-1.845 0-3.598.324-5.242.908" transform="translate(32 37) translate(.874)"/>
                            <path fill="#483037" d="M76.042 54.07l-.713 1.936c-.849 2.312-3.038 4.056-5.09 4.056h-4.115c-1.917 0-3.531-1.627-3.752-3.784l-.2-1.934c-.235-2.302.246-4.365 1.286-5.518.617-.683 1.391-1.014 2.365-1.014h7.43c1.081 0 1.955.431 2.525 1.247.85 1.22.951 3.14.264 5.011m-2.79-8.508h-7.43c-1.601 0-2.997.609-4.031 1.756-1.484 1.643-2.16 4.286-1.854 7.253l.198 1.937c.34 3.306 2.914 5.803 5.99 5.803h4.115c2.994 0 6.022-2.325 7.2-5.531l.712-1.935c.95-2.588.753-5.234-.53-7.072-.995-1.426-2.547-2.21-4.37-2.21M93.603 54.391l-.137 1.935c-.169 2.398-2.44 3.927-3.572 3.927h-1.71c-1.107 0-2.7-1.565-3.342-4.09l-.493-1.935c-.592-2.334-.366-4.783.548-5.958.34-.436.735-.65 1.205-.65h5.488c.378 0 .677.136.945.424.87.934 1.28 3.365 1.068 6.347m-2.013-8.639h-5.488c-1.056 0-1.983.473-2.68 1.371-1.285 1.65-1.632 4.62-.883 7.563l.493 1.939c.809 3.184 2.976 5.495 5.152 5.495h1.71c2.054 0 5.193-2.204 5.438-5.661l.137-1.936c.149-2.108.143-5.92-1.566-7.754-.62-.665-1.42-1.017-2.313-1.017" transform="translate(32 37) translate(.874)"/>
                            <path fill="#483037" d="M80.707 48.706c-2.436-.063-4.108 1.324-4.178 1.383l1.22 1.418c.008-.006 1.183-.961 2.9-.932 1.306.04 1.548.522 1.55.526l1.787-.537c-.047-.18-.537-1.774-3.279-1.858M62.208 47.41H35.194c-.515 0-.934.418-.934.933 0 .518.419.936.934.936h27.014c.516 0 .934-.418.934-.936 0-.515-.418-.932-.934-.932" transform="translate(32 37) translate(.874)"/>
                            <path fill="#FFAFAE" d="M39.588 48.225c-2.997 0-5.426 2.43-5.426 5.426v11.67c0 2.995 2.429 5.425 5.426 5.425h5.487V53.713c0-3.03-2.456-5.488-5.487-5.488" transform="translate(32 37) translate(.874)"/>
                            <path fill="#565656" d="M48.299 59.471h-3.223v25.471s7.466 10.82 20.27 10.82V75.337h-1.182c-8.761 0-15.865-7.103-15.865-15.865" transform="translate(32 37) translate(.874)"/>
                            <path fill="#606060" d="M53.466 81.905c0 7.653 6.204 13.856 13.856 13.856h9.873c7.652 0 13.855-6.203 13.855-13.856v-6.162H82.68l-2.421-1.877-2.585 1.877H53.466v6.162z" transform="translate(32 37) translate(.874)"/>
                            <path fill="#474747" d="M65.346 74.204v3.498h9.49c3.297 0 5.97-2.673 5.97-5.971v-3.447h-9.541c-3.27 0-5.919 2.652-5.919 5.92" transform="translate(32 37) translate(.874)"/>
                            <path fill="#474747" d="M86.082 68.285H80.11v4.393c0 2.773 2.252 5.023 5.027 5.023h5.926v-4.435c0-2.75-2.229-4.98-4.981-4.98" transform="translate(32 37) translate(.874)"/>
                            <path fill="#636363" d="M77.223.404H58.922v13.532c0 3.8 1.49 7.24 3.907 9.801h13.277c.066-.137-.577-1.871-.577-1.871 2.875 0 6.872.962 8.828 2.418.83-1.309 1.327-2.85 1.327-4.513V8.865c0-4.674-3.788-8.46-8.461-8.46" transform="translate(32 37) translate(.874)"/>
                            <path fill="#777" d="M68.985 5.778H48.027v9.134c0 4.875 2.63 9.133 6.535 11.44.154-.2.321-.384.507-.57 1.23-1.26 2.953-2.044 4.828-2.044h16.209c.491-1.03.768-2.183.768-3.4v-6.67c0-1.002-.185-1.954-.538-2.847-1.138-2.952-3.999-5.043-7.35-5.043" transform="translate(32 37) translate(.874)"/>
                        </g>
                        <g>
                            <path fill="#0044C1" d="M103.339 106.89L116.22 276.85 59.488 276.85 54.803 93.447 91.819 92.598z" transform="translate(32 37) matrix(-1 0 0 1 277.8 6.4)"/>
                            <path fill="#8C776D" d="M82.205 257.017L45.315 470.551 28.346 470.548 28.999 257.008z" transform="translate(32 37) matrix(-1 0 0 1 277.8 6.4)"/>
                            <path fill="#8C776D" d="M113.64 463.937L92.904 463.934 68.031 257.008 116.22 257.014z" transform="translate(32 37) matrix(-1 0 0 1 277.8 6.4)"/>
                            <g>
                                <path fill="#E08D8C" d="M133.408 268.904l1.714 24.12s24.295-3.208 12.228-25.112l-13.942.992z" transform="translate(32 37) matrix(-1 0 0 1 277.8 6.4)"/>
                                <path fill="#0044C1" d="M151.187 269.792L132.996 272.182 132.331 264.382 150.127 261.302z" transform="translate(32 37) matrix(-1 0 0 1 277.8 6.4)"/>
                                <g transform="translate(32 37) matrix(-1 0 0 1 277.8 6.4) translate(116.147 100.43)">
                                    <mask id="x34mk545jd" fill="#fff">
                                        <use xlink:href="#flvrr34xbc"/>
                                    </mask>
                                    <path fill="#7688A3" d="M.479.514L16.185 163.95l19.41-1.632s-3.42-36.976-4.5-76.398c-.11-4.307-.312-8.541-.603-12.617C28.395 43.813 18.217 18.616 12.51 6.516 10.366 1.976 5.397-.497.479.514" mask="url(#x34mk545jd)"/>
                                </g>
                                <path fill="#7688A3" d="M63.141 134.174c3.677 39.06 6.642 153.422 6.642 153.422l-41.06-.016-5.706-116.715-3.304-68.095 35.513-8.817c.597 1.08 5.078 10.171 7.915 40.22" transform="translate(32 37) matrix(-1 0 0 1 277.8 6.4)"/>
                                <path fill="#FFF" d="M92.193 93.033L77.296 93.824 76.571 93.824 55.436 93.84 56.984 93.033z" transform="translate(32 37) matrix(-1 0 0 1 277.8 6.4)"/>
                                <path fill="#7688A3" d="M124.754 102.333l1.197 185.263h-18.91s5.996-164.513-14.848-194.563l32.56 9.3z" transform="translate(32 37) matrix(-1 0 0 1 277.8 6.4)"/>
                                <path fill="#663F3F" d="M55.226 93.952c-.031-.081-.047-.112-.047-.112h.258l-.211.112z" transform="translate(32 37) matrix(-1 0 0 1 277.8 6.4)"/>
                                <path fill="#333C57" d="M52.399 239.43L52.4 231.821 54.697 231.821 54.696 241.727 31.187 241.723 31.187 239.426zM38.599 123.32L53.495 95.663 55.517 96.753 41.526 122.727 57.83 135.809 41.592 146.007 63.605 185.422 61.598 186.541 38.525 145.223 53.876 135.58zM99.67 100.608L114.736 125.61 109.56 132.359 118.036 137.295 109.868 180.473 107.619 180.011 115.453 138.449 106.151 133.028 111.961 125.455 97.704 101.794zM119.028 231.832L119.026 239.441 124.91 239.441 124.909 241.74 116.73 241.738 116.731 231.832z" transform="translate(32 37) matrix(-1 0 0 1 277.8 6.4)"/>
                                <path fill="#E08D8C" d="M24.612 271.47l.37 24.177s-24.48-1.102-14.346-23.963l13.976-.214z" transform="translate(32 37) matrix(-1 0 0 1 277.8 6.4)"/>
                                <path fill="#0044C1" d="M6.975 273.887L24.997 274.571 25.322 266.021 7.3 265.337z" transform="translate(32 37) matrix(-1 0 0 1 277.8 6.4)"/>
                                <path fill="#7688A3" d="M25.879 103.024l-.627 164.074-21.014-.063S-.587 172.605.06 166.505c3.128-29.54 10.071-49.632 13.783-58.702 1.346-3.283 4.64-5.327 8.18-5.064l3.856.285z" transform="translate(32 37) matrix(-1 0 0 1 277.8 6.4)"/>
                                <path fill="#E08D8C" d="M92.13 92.953s-4.858 7.273-18.504 7.273c-13.645 0-18.506-7.273-18.506-7.273V45.889h37.01v47.064z" transform="translate(32 37) matrix(-1 0 0 1 277.8 6.4)"/>
                                <path fill="#CA6F6D" d="M92.13 92.953V70.258H62.825c0 3.359 0 22.695 29.307 22.695" transform="translate(32 37) matrix(-1 0 0 1 277.8 6.4)"/>
                                <path fill="#1A1B22" d="M67.825 10.973l13.942.003c12.954.003 23.453 10.505 23.451 23.46l-.973 25.32-47.929-1.583c-5.015 0-9.079-4.068-9.079-9.082l.002-17.541c.003-11.367 9.22-20.578 20.586-20.577" transform="translate(32 37) matrix(-1 0 0 1 277.8 6.4)"/>
                                <path fill="#E08D8C" d="M91.721 90.173c-18.59.659-29.285-13.847-29.285-13.847l.008-37.467S60.437 19.56 78.33 19.563l7.391.001c15.76.003 18.86 14.59 18.825 24.557l-.006 32.837c-.001 7.142-5.682 12.963-12.82 13.215" transform="translate(32 37) matrix(-1 0 0 1 277.8 6.4)"/>
                                <path fill="#1A1B22" d="M59.95 19.56c-5.326 0-9.646 4.318-9.646 9.644l-.006 28.949c9.502.001 17.208-7.701 17.21-17.203l.002-13.827c0-4.176-3.385-7.56-7.56-7.562" transform="translate(32 37) matrix(-1 0 0 1 277.8 6.4)"/>
                                <path fill="#E08D8C" d="M55.484 47.869c-2.862-.002-5.186 2.32-5.186 5.184l-.001 10.715c-.001 2.862 2.32 5.183 5.184 5.184h5.245l.003-15.837c0-2.898-2.349-5.246-5.245-5.246" transform="translate(32 37) matrix(-1 0 0 1 277.8 6.4)"/>
                                <path fill="#CA6F6D" d="M91.457 64.118L96.379 64.118 95.578 56.893 93.389 57.133 93.918 61.917 91.457 61.917z" transform="translate(32 37) matrix(-1 0 0 1 277.8 6.4)"/>
                                <g transform="translate(32 37) matrix(-1 0 0 1 277.8 6.4) translate(56.124)">
                                    <mask id="99glnycgaf" fill="#fff">
                                        <use xlink:href="#j097sque4e"/>
                                    </mask>
                                    <path fill="#1A1B22" d="M.407 21.14s36.15-3.725 44.155 6.34c10.644 2.325 11.4-19.82.861-27.35-4.41 5.053-21.748 3.731-30.77 5.008C2.78 6.817.408 21.14.408 21.14" mask="url(#99glnycgaf)"/>
                                </g>
                                <path fill="#1A1B22" d="M73.626 16.464h-8.271V37.67h.752c4.154 0 7.519-3.366 7.519-7.518V16.464z" transform="translate(32 37) matrix(-1 0 0 1 277.8 6.4)"/>
                                <path fill="#CC6968" d="M95.79 77.342c.256-.078.517-.17.781-.282l-.754-1.796c-4.075 1.731-6.353-2.044-6.449-2.205l-1.676.99c1.035 1.759 3.995 4.55 8.098 3.293" transform="translate(32 37) matrix(-1 0 0 1 277.8 6.4)"/>
                            </g>
                        </g>
                    </g>
                </g>
            </g>
        </g>
    </g>
</svg>
