<svg xmlns="http://www.w3.org/2000/svg" xmlns:xlink="http://www.w3.org/1999/xlink" width="341" height="360" viewBox="0 0 341 360">
    <defs>
        <path id="6f9v5wpnda" d="M.252 221.516C2.509 183.068 5.054 51.977 71.406 13.178c70.85-41.43 219.293 29.164 243.301 68.049 46.493 75.302 34.725 233.69-62.707 269.88C154.568 387.294-4.416 301.016.252 221.515z"/>
        <path id="qf9t5dmldc" d="M0.416 0.588L59.024 0.588 59.024 68.936 0.416 68.936z"/>
        <path id="mk7dxaqvxe" d="M0.02 0.372L36.124 0.372 36.124 51.466 0.02 51.466z"/>
    </defs>
    <g fill="none" fill-rule="evenodd">
        <g>
            <g transform="translate(-832 -653) translate(832 653)">
                <mask id="o137j06yzb" fill="#fff">
                    <use xlink:href="#6f9v5wpnda"/>
                </mask>
                <path fill="#F2F6FB" d="M15.11 237.872C19.776 158.37 270.213 4.925 316.706 80.227c46.493 75.302 34.725 233.69-62.707 269.88-97.432 36.188-243.559-32.734-238.89-112.235z" style="mix-blend-mode:multiply" mask="url(#o137j06yzb)"/>
                <g mask="url(#o137j06yzb)">
                    <g>
                        <path fill="#0044C1" d="M65.183 99.2L53.6 166.878 66.722 180.8 78.4 137.425z" transform="translate(141.2 57.6)"/>
                        <path fill="#FF8400" d="M0 159.864L47.448 238.4 97.6 208.134 50.152 129.6z" transform="translate(141.2 57.6)"/>
                        <g>
                            <path fill="#976269" d="M17.649 217.9l-1.768 1.067c-2.011 1.214-4.624.568-5.838-1.442l-9.29-15.382c-1.212-2.012-.566-4.625 1.443-5.839l6.548-3.955c3.12-1.882 7.174-.881 9.057 2.238l3.978 6.588c3.478 5.76 1.628 13.248-4.13 16.725" transform="translate(141.2 57.6) translate(19.2)"/>
                            <g fill="#331E19">
                                <path d="M39.61 84.925H.6V33.852C.6 15.275 15.662.214 34.238.214h6.354l-.982 84.711z" transform="translate(141.2 57.6) translate(19.2) translate(45.459)"/>
                            </g>
                            <path fill="#976269" d="M81.596 223.36v227.508H67.948s-13.775-58.978-19.582-119.25c-4.033-41.922-4.208-84.467 6.798-108.258h26.432z" transform="translate(141.2 57.6) translate(19.2)"/>
                            <path fill="#976269" d="M111.278 332.965c-.829 4.847-21.908 117.898-21.908 117.898H78.094V223.357h28.525c17.189 42.653 11.772 68.003 4.659 109.608" transform="translate(141.2 57.6) translate(19.2)"/>
                            <path fill="#3E3F4F" d="M111.5 331.618H47.628c-4.032-41.921-4.207-84.466 6.8-108.258l52.191-.003c19.696 42.657 13.247 70.388 4.88 108.26" transform="translate(141.2 57.6) translate(19.2)"/>
                            <path fill="#0044C1" d="M54.06 223.362h51.92s-11.038-25.754 15.29-93.784l.486-32.83-23.158-7.527-26.936-1.376L46.06 99.161l8 124.201z" transform="translate(141.2 57.6) translate(19.2)"/>
                            <g transform="translate(141.2 57.6) translate(19.2) translate(104.73 96.193)">
                                <mask id="llazprvwtd" fill="#fff">
                                    <use xlink:href="#qf9t5dmldc"/>
                                </mask>
                                <path fill="#0044C1" d="M16.885 0.588L0.416 12.995 42.556 68.936 59.025 56.529z" mask="url(#llazprvwtd)"/>
                            </g>
                            <path fill="#FFF" d="M98.474 89.215L107.152 111.187 78.272 106.025 53.364 111.187 71.662 87.845z" transform="translate(141.2 57.6) translate(19.2)"/>
                            <path fill="#976269" d="M71.678 89.736L78.273 106.024 90.757 89.557z" transform="translate(141.2 57.6) translate(19.2)"/>
                            <path fill="#976269" d="M71.678 89.215s-.805 4.827 9.074 4.827c9.88 0 17.722-4.827 17.722-4.827V57.981H71.678v31.234z" transform="translate(141.2 57.6) translate(19.2)"/>
                            <path fill="#80424F" d="M71.678 84.99V65.459h24.273s-4.29 17.58-24.273 19.533" transform="translate(141.2 57.6) translate(19.2)"/>
                            <path fill="#976269" d="M105.146 36.68v13.972h-5.091v22.534s-18.321 10.227-34.067 3.533c-6.896-2.933-9.513-9.443-9.513-16.388V36.68c0-4.06 1.144-7.866 3.15-11.142 4.108-6.77 11.862-11.336 20.737-11.336h.896c13.19 0 23.888 10.067 23.888 22.478" transform="translate(141.2 57.6) translate(19.2)"/>
                            <path fill="#80424F" d="M63.972 56.268c-1.21 0-2.377-.541-3.196-1.487-.902-1.038-1.302-2.434-1.101-3.827l.226-1.581 2.293.328-.228 1.582c-.103.729.1 1.45.558 1.981.385.445.9.689 1.448.689v2.315z" transform="translate(141.2 57.6) translate(19.2)"/>
                            <path fill="#331E19" d="M88.672 85.071h-3.604V.214h14.568c8.61 0 15.588 6.98 15.588 15.59v42.714c0 14.665-11.888 26.553-26.552 26.553" transform="translate(141.2 57.6) translate(19.2)"/>
                            <path fill="#331E19" d="M100.147 31.333h-6.6c-10.29 0-18.632-8.341-18.632-18.633h25.232v18.633z" transform="translate(141.2 57.6) translate(19.2)"/>
                            <g transform="translate(141.2 57.6) translate(19.2) translate(127.63 144.143)">
                                <mask id="ri5kj6pdvf" fill="#fff">
                                    <use xlink:href="#mk7dxaqvxe"/>
                                </mask>
                                <path fill="#0044C1" d="M36.124 8.461L13.321 51.466 0.02 45.68 19.725 0.372z" mask="url(#ri5kj6pdvf)"/>
                            </g>
                            <path fill="#976269" d="M140.951 195.608L130.98 214.204 119.262 209.107 127.649 189.822z" transform="translate(141.2 57.6) translate(19.2)"/>
                            <path fill="#976269" d="M102.359 219.692l.14-2.522c.446-7.936 7.239-14.008 15.173-13.562l13.857.776c.565.031.997.516.966 1.08l-.141 2.523c-.445 7.934-7.238 14.007-15.174 13.562l-13.856-.777c-.565-.032-.998-.516-.965-1.08" transform="translate(141.2 57.6) translate(19.2)"/>
                            <path fill="#80424F" d="M64.106 67.318L63.856 65.017 76.832 63.605 77.081 65.906z" transform="translate(141.2 57.6) translate(19.2)"/>
                            <path fill="#80424F" d="M75.808 67.908L75.008 61.908 77.303 61.603 78.105 67.603z" transform="translate(141.2 57.6) translate(19.2)"/>
                        </g>
                    </g>
                </g>
                <g mask="url(#o137j06yzb)">
                    <g>
                        <path fill="#292936" d="M113.515 110.4L124.8 178.209 104.8 181.6z" transform="translate(10 44)"/>
                        <g>
                            <path fill="#EB9897" d="M77.684 235.762v229.366h13.78s13.909-59.46 19.773-120.225c4.07-42.263 4.248-85.154-6.866-109.14H77.684z" transform="translate(10 44)"/>
                            <path fill="#EB9897" d="M47.715 346.262c.837 4.886 22.12 118.86 22.12 118.86H81.22V235.76H54.034c-17.354 43.001-13.501 68.559-6.319 110.502" transform="translate(10 44)"/>
                            <path fill="#292936" d="M45.134 388.457h70.95c4.07-85.816.516-128.707-10.597-152.692l-52.42-.003c-19.886 43.004-16.38 70.96-7.933 152.695M37.295 108.289L53.923 120.798 20.842 189.327.001 184.195z" transform="translate(10 44)"/>
                            <path fill="#292936" d="M105.486 235.765l.96 10.833L87.7 235.763 67.556 248.27l-14.49-12.505s13.257-18.372-13.325-86.957l-2.605-40.69 23.383-7.59 27.195-1.386 25.849 11.408-8.077 125.215z" transform="translate(10 44)"/>
                            <path fill="#000" d="M76.703 166.925L54.94 137.444 62.588 127.465 47.59 124.647 59.836 103.822 61.938 105.054 51.444 122.896 66.926 125.806 57.987 137.472 78.664 165.482zM84.438 168.337L82.396 167.011 102.399 136.253 89.721 126.701 102.972 120.71 86.804 103.238 88.592 101.588 107.053 121.538 94.464 127.227 105.677 135.675z" transform="translate(10 44)"/>
                            <path fill="#184089" d="M68.925 112.351L81.22 167.471 90.247 112.351z" transform="translate(10 44)"/>
                            <path fill="#205BC8" d="M60.643 100.524L53.923 125.561 81.039 117.469 102.861 123.771 87.714 99.142z" transform="translate(10 44)"/>
                            <path fill="#EB9897" d="M87.698 101.048L81.04 117.468 68.436 100.867z" transform="translate(10 44)"/>
                            <path fill="#292936" d="M9.052 186.553L56.463 199.472 61.397 185.703 14.432 168.918z" transform="translate(10 44)"/>
                            <path fill="#FF8400" d="M74.964 227.281L126.908 229.615 130.76 144.125 78.816 141.79z" transform="translate(10 44)"/>
                            <path fill="#EB9897" d="M56.463 199.472L77.04 204.977 81.387 192.846 61.397 185.702z" transform="translate(10 44)"/>
                            <path fill="#EB9897" d="M98.108 188.574l-2.89-2.42c-5.666-4.744-14.11-4.006-18.862 1.653l-9.79 11.655c-.338.402-.285 1.003.118 1.34l2.89 2.42c5.665 4.745 14.11 4.007 18.861-1.651l9.79-11.655c.339-.404.286-1.003-.117-1.342M90.247 101.41s.882 4.867-9.942 4.867-19.418-4.867-19.418-4.867V69.92h29.36v31.49z" transform="translate(10 44)"/>
                            <path fill="#CC6968" d="M90.247 97.152V77.46H63.653s4.701 17.723 26.594 19.692" transform="translate(10 44)"/>
                            <path fill="#EB9897" d="M55.137 40.476V57.22l5.75.448v23.167s18.149 15.643 35.4 7.62c7.555-3.513 12.177-11.315 12.177-19.638V40.476c0-4.864-1.254-9.425-3.451-13.353-4.502-8.11-12.998-13.583-22.722-13.583h-.981c-14.45 0-26.173 12.064-26.173 26.936" transform="translate(10 44)"/>
                            <path fill="#43251F" d="M55.137 40.476v17.821h12.722l2.752-14.738 34.402-16.436C100.51 19.013 92.015 13.54 82.29 13.54h-.981c-14.45 0-26.173 12.064-26.173 26.936" transform="translate(10 44)"/>
                            <path fill="#EB9897" d="M59.974 47.335h-.967c-2.612 0-4.73 2.113-4.73 4.72v11.078c0 2.608 2.118 4.722 4.73 4.722h5.75V52.112c0-2.64-2.142-4.777-4.783-4.777" transform="translate(10 44)"/>
                            <path fill="#CC6968" d="M98.69 71.093v-2.431c1.578 0 2.864-1.284 2.864-2.862v-4.589h2.436V65.8c0 2.92-2.377 5.293-5.3 5.293M88.68 80.753c-5.367 0-7.882-4.416-8.477-6.896l2.368-.57c.056.226 1.402 5.538 6.903 4.993l.244 2.42c-.358.036-.703.053-1.038.053" transform="translate(10 44)"/>
                            <path fill="#000" d="M13.709 174.842L26.961 174.842 26.961 173.228 13.709 173.228zM17.756 182.175L16.931 180.788 27.135 174.741 27.961 176.128z" transform="translate(10 44)"/>
                            <path fill="#43251F" d="M74.964 22.06c0 12.14-9.855 21.982-22.011 21.982-12.158 0-22.013-9.841-22.013-21.981C30.94 9.92 40.795.08 52.953.08c12.156 0 22.01 9.84 22.01 21.98" transform="translate(10 44)"/>
                        </g>
                    </g>
                </g>
            </g>
        </g>
    </g>
</svg>
