<svg width="24" height="24" viewBox="0 0 24 24" fill="none" xmlns="http://www.w3.org/2000/svg">
    <path fill-rule="evenodd" clip-rule="evenodd" d="M2.397.966c.352-.077.717-.05 1.054.076l18.41 6.904a1.872 1.872 0 0 1-.017 3.512l-7.606 2.766-.316-.868.316.868a.025.025 0 0 0-.015.015l-2.766 7.606a1.872 1.872 0 0 1-3.512.017l.864-.324-.864.324L1.04 3.452A1.872 1.872 0 0 1 2.397.966zm.406 1.805a.026.026 0 0 0-.033.033l6.903 18.41-.852.32.852-.32c.002.005.006.01.01.012.004.003.01.005.015.005a.026.026 0 0 0 .024-.017l2.765-7.606.868.316-.868-.316a1.872 1.872 0 0 1 1.12-1.12l7.606-2.765a.026.026 0 0 0 0-.048L2.803 2.77z" fill="#fff"/>
    <path fill-rule="evenodd" clip-rule="evenodd" d="M14.117 14.117a.923.923 0 0 1 1.305 0l7.385 7.384a.923.923 0 1 1-1.306 1.306l-7.384-7.385a.923.923 0 0 1 0-1.305z" fill="#fff"/>
</svg>
