<svg xmlns="http://www.w3.org/2000/svg" width="22" height="22" viewBox="0 0 22 22">
    <g fill="none" fill-rule="evenodd" stroke-linecap="round" stroke-linejoin="round">
        <g stroke="#ffffff" stroke-width="1.5">
            <g>
                <g>
                    <path d="M20 14.92v3c.002.563-.233 1.101-.648 1.482-.415.38-.971.569-1.532.518-3.077-.334-6.033-1.386-8.63-3.07-2.416-1.535-4.465-3.584-6-6C1.5 8.241.448 5.271.12 2.18.07 1.62.256 1.066.635.652 1.013.237 1.549 0 2.11 0h3c1.004-.01 1.86.726 2 1.72.127.96.361 1.903.7 2.81.275.73.099 1.555-.45 2.11L6.09 7.91c1.424 2.504 3.496 4.576 6 6l1.27-1.27c.555-.549 1.38-.725 2.11-.45.907.339 1.85.573 2.81.7 1.006.142 1.745 1.015 1.72 2.03z" transform="translate(-162 -708) translate(163 563) translate(0 146)"/>
                </g>
            </g>
        </g>
    </g>
</svg>
