<svg xmlns="http://www.w3.org/2000/svg" xmlns:xlink="http://www.w3.org/1999/xlink" width="18" height="18" viewBox="0 0 18 18">
    <defs>
        <path id="as3tgyzkla" d="M339.3 1337.9v5.4c0 1.53-1.17 2.7-2.7 2.7h-9.9c-1.53 0-2.7-1.17-2.7-2.7v-9.9c0-1.53 1.17-2.7 2.7-2.7h5.4c.54 0 .9.36.9.9s-.36.9-.9.9h-5.4c-.54 0-.9.36-.9.9v9.9c0 .54.36.9.9.9h9.9c.54 0 .9-.36.9-.9v-5.4c0-.54.36-.9.9-.9s.9.36.9.9zm2.61-9.36c-.09-.18-.27-.36-.45-.45-.09-.09-.27-.09-.36-.09h-5.4c-.54 0-.9.36-.9.9s.36.9.9.9h3.24l-8.37 8.37c-.36.36-.36.9 0 1.26.18.18.36.27.63.27s.45-.09.63-.27l8.37-8.37v3.24c0 .54.36.9.9.9s.9-.36.9-.9v-5.4c0-.09 0-.27-.09-.36z"/>
    </defs>
    <g fill="none" fill-rule="evenodd">
        <g transform="translate(-324 -1328)">
            <use fill="#002042" fill-rule="nonzero" xlink:href="#as3tgyzkla"/>
        </g>
    </g>
</svg>
